<svg xmlns="http://www.w3.org/2000/svg" viewBox="0 -6 240 240" width="240" height="240" role="img" aria-label="Cernarium">
  <defs>
    <clipPath id="beam">
      <polygon points="86,109 154,101 154,93 86,101"/>
    </clipPath>
  </defs>
  <g fill="none" stroke="#9A6A3C" stroke-width="4" stroke-linecap="round" stroke-linejoin="round">
    <circle cx="120" cy="120" r="95"/>
    <line x1="181.0" y1="59.0" x2="189.5" y2="50.5" stroke-width="5"/>
    <line x1="59.0" y1="181.0" x2="50.5" y2="189.5" stroke-width="5"/>
    <circle cx="120" cy="60" r="10"/>
    <line x1="120" y1="70" x2="120" y2="96"/>
  </g>
  <g>
    <polygon points="86,109 154,101 154,93 86,101" fill="#9A6A3C"/>
    <g clip-path="url(#beam)" stroke="#1A1714" stroke-width="1.4">
      <line x1="92"  y1="111" x2="92"  y2="89"/>
      <line x1="99"  y1="110" x2="99"  y2="88"/>
      <line x1="106" y1="109" x2="106" y2="87"/>
      <line x1="113" y1="108" x2="113" y2="86"/>
      <line x1="127" y1="106" x2="127" y2="84"/>
      <line x1="134" y1="105" x2="134" y2="83"/>
      <line x1="141" y1="104" x2="141" y2="82"/>
      <line x1="148" y1="103" x2="148" y2="81"/>
    </g>
    <circle cx="120" cy="100" r="4.5" fill="#1A1714" stroke="#9A6A3C" stroke-width="2.4"/>
  </g>
  <g fill="none" stroke="#9A6A3C" stroke-width="4" stroke-linecap="round" stroke-linejoin="round">
    <circle cx="80" cy="105" r="6"/>
    <circle cx="160" cy="95" r="6"/>
    <line x1="80" y1="111" x2="80" y2="170"/>
    <line x1="160" y1="101" x2="160" y2="160"/>
  </g>
  <g fill="#9A6A3C" stroke="#9A6A3C" stroke-width="2" stroke-linejoin="round">
    <path d="M 62 170 A 18 9 0 0 0 98 170 Z"/>
    <path d="M 142 160 A 18 9 0 0 0 178 160 Z"/>
  </g>
</svg>